<svg width="49" height="56" viewBox="0 0 49 56" fill="none" xmlns="http://www.w3.org/2000/svg">
<g filter="url(#filter0_d_1_475)">
<path fill-rule="evenodd" clip-rule="evenodd" d="M22.1001 37.4307C18.037 36.8433 14.3224 34.7874 11.6659 31.6422C8.89701 28.364 7.48747 24.151 7.72625 19.867C7.96503 15.583 9.83404 11.5526 12.95 8.60235C16.066 5.65206 20.1929 4.00539 24.4845 4C28.7813 3.99688 32.916 5.63956 36.0388 8.59039C39.1616 11.5412 41.0351 15.576 41.2741 19.8653C41.5132 24.1545 40.0997 28.3724 37.3242 31.6519C34.668 34.7904 30.9574 36.8412 26.9001 37.4273V45.4C26.9001 46.7255 25.8256 47.8 24.5001 47.8C23.1746 47.8 22.1001 46.7255 22.1001 45.4V37.4307Z" fill="#306FE3"/>
<path fill-rule="evenodd" clip-rule="evenodd" d="M24.4845 4C28.7813 3.99688 32.916 5.63956 36.0388 8.59039C39.1616 11.5412 41.0351 15.576 41.2741 19.8653C41.5132 24.1545 40.0997 28.3724 37.3242 31.6519C34.668 34.7904 30.9574 36.8412 26.9001 37.4273V45.4C26.9001 46.7255 25.8256 47.8 24.5001 47.8C23.1746 47.8 22.1001 46.7255 22.1001 45.4V37.4307C18.037 36.8433 14.3224 34.7874 11.6659 31.6422C8.89702 28.364 7.48747 24.151 7.72625 19.867C7.96503 15.583 9.83404 11.5526 12.95 8.60235C16.066 5.65206 20.1929 4.00539 24.4845 4ZM20.1001 39.0806C16.2294 38.1481 12.7327 36.0047 10.1379 32.9327C7.03952 29.2644 5.46214 24.5498 5.72935 19.7557C5.99656 14.9616 8.0881 10.4515 11.575 7.15005C15.0618 3.84862 19.6798 2.00604 24.4819 2.00001L24.483 2C29.2911 1.9965 33.918 3.83466 37.4124 7.13673C40.9069 10.4388 43.0035 14.9539 43.271 19.754L41.2741 19.8653L43.271 19.754C43.5386 24.554 41.9568 29.2741 38.8508 32.9439C36.2569 36.0088 32.7647 38.1466 28.9001 39.0773V45.4C28.9001 47.83 26.9302 49.8 24.5001 49.8C22.07 49.8 20.1001 47.8301 20.1001 45.4V39.0806Z" fill="white"/>
<mask id="mask0_1_475" style="mask-type:alpha" maskUnits="userSpaceOnUse" x="12" y="9" width="25" height="24">
<path d="M24.6819 11C23.2935 11 22.2087 11.5258 21.4277 12.5774C20.6467 13.629 20.2562 14.9732 20.2562 16.6101C20.2466 18.6438 20.883 20.256 22.1653 21.4464C22.3293 21.6052 22.3871 21.8085 22.3389 22.0565L22.0063 22.7708C21.9002 23.0089 21.7435 23.1949 21.5362 23.3289C21.3289 23.4628 20.8926 23.6538 20.2273 23.9018C20.1984 23.9117 19.5885 24.1151 18.3978 24.5119C17.207 24.9087 16.573 25.127 16.4959 25.1667C15.686 25.5139 15.1557 25.876 14.905 26.253C14.635 26.878 14.5 28.4603 14.5 31H34.8638C34.8638 28.4603 34.7288 26.878 34.4588 26.253C34.2081 25.876 33.6778 25.5139 32.8679 25.1667C32.7908 25.127 32.1568 24.9087 30.966 24.5119C29.7752 24.1151 29.1654 23.9117 29.1365 23.9018C28.4712 23.6538 28.0349 23.4628 27.8276 23.3289C27.6203 23.1949 27.4636 23.0089 27.3575 22.7708L27.0249 22.0565C26.9767 21.8085 27.0345 21.6052 27.1984 21.4464C28.4808 20.256 29.1172 18.6438 29.1075 16.6101C29.1075 14.9732 28.717 13.629 27.936 12.5774C27.1551 11.5258 26.0703 11 24.6819 11Z" fill="white"/>
</mask>
<g mask="url(#mask0_1_475)">
<ellipse cx="24.5005" cy="20" rx="11" ry="11" fill="white"/>
</g>
</g>
<defs>
<filter id="filter0_d_1_475" x="-3.5" y="-2.38419e-07" width="56" height="56" filterUnits="userSpaceOnUse" color-interpolation-filters="sRGB">
<feFlood flood-opacity="0" result="BackgroundImageFix"/>
<feColorMatrix in="SourceAlpha" type="matrix" values="0 0 0 0 0 0 0 0 0 0 0 0 0 0 0 0 0 0 127 0" result="hardAlpha"/>
<feOffset dy="2"/>
<feGaussianBlur stdDeviation="2"/>
<feComposite in2="hardAlpha" operator="out"/>
<feColorMatrix type="matrix" values="0 0 0 0 0 0 0 0 0 0 0 0 0 0 0 0 0 0 0.15 0"/>
<feBlend mode="normal" in2="BackgroundImageFix" result="effect1_dropShadow_1_475"/>
<feBlend mode="normal" in="SourceGraphic" in2="effect1_dropShadow_1_475" result="shape"/>
</filter>
</defs>
</svg>
