<svg width="48" height="56" viewBox="0 0 48 56" fill="none" xmlns="http://www.w3.org/2000/svg">
<g filter="url(#filter0_d_1_461)">
<path fill-rule="evenodd" clip-rule="evenodd" d="M21.6001 37.4307C17.537 36.8433 13.8224 34.7874 11.1659 31.6422C8.39701 28.364 6.98747 24.151 7.22625 19.867C7.46503 15.583 9.33404 11.5526 12.45 8.60235C15.566 5.65206 19.6929 4.00539 23.9845 4C28.2813 3.99688 32.416 5.63956 35.5388 8.59039C38.6616 11.5412 40.5351 15.576 40.7741 19.8653C41.0132 24.1545 39.5997 28.3724 36.8242 31.6519C34.168 34.7904 30.4574 36.8412 26.4001 37.4273V45.4C26.4001 46.7255 25.3256 47.8 24.0001 47.8C22.6746 47.8 21.6001 46.7255 21.6001 45.4V37.4307Z" fill="#306FE3"/>
<path fill-rule="evenodd" clip-rule="evenodd" d="M23.9845 4C28.2813 3.99688 32.416 5.63956 35.5388 8.59039C38.6616 11.5412 40.5351 15.576 40.7741 19.8653C41.0132 24.1545 39.5997 28.3724 36.8242 31.6519C34.168 34.7904 30.4574 36.8412 26.4001 37.4273V45.4C26.4001 46.7255 25.3256 47.8 24.0001 47.8C22.6746 47.8 21.6001 46.7255 21.6001 45.4V37.4307C17.537 36.8433 13.8224 34.7874 11.1659 31.6422C8.39702 28.364 6.98747 24.151 7.22625 19.867C7.46503 15.583 9.33404 11.5526 12.45 8.60235C15.566 5.65206 19.6929 4.00539 23.9845 4ZM19.6001 39.0806C15.7294 38.1481 12.2327 36.0047 9.63794 32.9327C6.53952 29.2644 4.96214 24.5498 5.22935 19.7557C5.49656 14.9616 7.5881 10.4515 11.075 7.15005C14.5618 3.84862 19.1798 2.00604 23.9819 2.00001L23.983 2C28.7911 1.9965 33.418 3.83466 36.9124 7.13673C40.4069 10.4388 42.5035 14.9539 42.771 19.754L40.7741 19.8653L42.771 19.754C43.0386 24.554 41.4568 29.2741 38.3508 32.9439C35.7569 36.0088 32.2647 38.1466 28.4001 39.0773V45.4C28.4001 47.83 26.4302 49.8 24.0001 49.8C21.57 49.8 19.6001 47.8301 19.6001 45.4V39.0806Z" fill="white"/>
<mask id="mask0_1_461" style="mask-type:alpha" maskUnits="userSpaceOnUse" x="12" y="9" width="24" height="24">
<rect x="12" y="9" width="24" height="24" fill="#D9D9D9"/>
</mask>
<g mask="url(#mask0_1_461)">
<path d="M17.0001 31V12H33.0001L31.0001 17L33.0001 22H19.0001V31H17.0001Z" fill="white"/>
</g>
</g>
<defs>
<filter id="filter0_d_1_461" x="-4" y="0" width="56" height="56" filterUnits="userSpaceOnUse" color-interpolation-filters="sRGB">
<feFlood flood-opacity="0" result="BackgroundImageFix"/>
<feColorMatrix in="SourceAlpha" type="matrix" values="0 0 0 0 0 0 0 0 0 0 0 0 0 0 0 0 0 0 127 0" result="hardAlpha"/>
<feOffset dy="2"/>
<feGaussianBlur stdDeviation="2"/>
<feComposite in2="hardAlpha" operator="out"/>
<feColorMatrix type="matrix" values="0 0 0 0 0 0 0 0 0 0 0 0 0 0 0 0 0 0 0.15 0"/>
<feBlend mode="normal" in2="BackgroundImageFix" result="effect1_dropShadow_1_461"/>
<feBlend mode="normal" in="SourceGraphic" in2="effect1_dropShadow_1_461" result="shape"/>
</filter>
</defs>
</svg>

