<svg width="24" height="24" viewBox="0 0 24 24" fill="none" xmlns="http://www.w3.org/2000/svg">
<path d="M20.8758 14.299L20.907 14.2922H7.52391L11.7311 18.4857C11.9371 18.6905 12.0501 18.9678 12.0501 19.2589C12.0501 19.55 11.9371 19.8254 11.7311 20.0307L11.0764 20.6821C10.8706 20.8868 10.5963 21 10.3037 21C10.0111 21 9.73659 20.8876 9.53073 20.6829L2.31887 13.5108C2.1122 13.3052 1.99919 13.0314 2 12.7402C1.99919 12.4473 2.1122 12.1734 2.31887 11.9681L9.53073 4.79539C9.73659 4.59082 10.0109 4.47826 10.3037 4.47826C10.5963 4.47826 10.8706 4.59098 11.0764 4.79539L11.7311 5.4468C11.9371 5.65121 12.0501 5.92419 12.0501 6.21529C12.0501 6.50622 11.9371 6.76481 11.7311 6.96939L7.47643 11.1864H20.8907C21.4935 11.1864 22 11.7031 22 12.3022V13.2236C22 13.8227 21.4785 14.299 20.8758 14.299Z" fill="white"/>
</svg>
